<svg width="1200" height="48" viewBox="0 0 1200 48" fill="none" xmlns="http://www.w3.org/2000/svg">
<rect width="200" height="4" fill="black"/>
<rect y="44" width="200" height="4" fill="black"/>
<rect x="10" y="4" width="4" height="40" fill="black"/>
<rect x="30" y="4" width="4" height="40" fill="black"/>
<rect x="50" y="4" width="4" height="40" fill="black"/>
<rect x="70" y="4" width="4" height="40" fill="black"/>
<rect x="90" y="4" width="4" height="40" fill="black"/>
<rect x="110" y="4" width="4" height="40" fill="black"/>
<rect x="130" y="4" width="4" height="40" fill="black"/>
<rect x="150" y="4" width="4" height="40" fill="black"/>
<rect x="168" y="4" width="4" height="40" fill="black"/>
<rect x="188" y="4" width="4" height="40" fill="black"/>
<rect x="200" width="200" height="4" fill="black"/>
<rect x="200" y="44" width="200" height="4" fill="black"/>
<rect x="210" y="4" width="4" height="40" fill="black"/>
<rect x="230" y="4" width="4" height="40" fill="black"/>
<rect x="250" y="4" width="4" height="40" fill="black"/>
<rect x="270" y="4" width="4" height="40" fill="black"/>
<rect x="290" y="4" width="4" height="40" fill="black"/>
<rect x="310" y="4" width="4" height="40" fill="black"/>
<rect x="330" y="4" width="4" height="40" fill="black"/>
<rect x="350" y="4" width="4" height="40" fill="black"/>
<rect x="368" y="4" width="4" height="40" fill="black"/>
<rect x="388" y="4" width="4" height="40" fill="black"/>
<rect x="400" width="200" height="4" fill="black"/>
<rect x="400" y="44" width="200" height="4" fill="black"/>
<rect x="410" y="4" width="4" height="40" fill="black"/>
<rect x="430" y="4" width="4" height="40" fill="black"/>
<rect x="450" y="4" width="4" height="40" fill="black"/>
<rect x="470" y="4" width="4" height="40" fill="black"/>
<rect x="490" y="4" width="4" height="40" fill="black"/>
<rect x="510" y="4" width="4" height="40" fill="black"/>
<rect x="530" y="4" width="4" height="40" fill="black"/>
<rect x="550" y="4" width="4" height="40" fill="black"/>
<rect x="568" y="4" width="4" height="40" fill="black"/>
<rect x="588" y="4" width="4" height="40" fill="black"/>
<rect x="600" width="200" height="4" fill="black"/>
<rect x="600" y="44" width="200" height="4" fill="black"/>
<rect x="610" y="4" width="4" height="40" fill="black"/>
<rect x="630" y="4" width="4" height="40" fill="black"/>
<rect x="650" y="4" width="4" height="40" fill="black"/>
<rect x="670" y="4" width="4" height="40" fill="black"/>
<rect x="690" y="4" width="4" height="40" fill="black"/>
<rect x="710" y="4" width="4" height="40" fill="black"/>
<rect x="730" y="4" width="4" height="40" fill="black"/>
<rect x="750" y="4" width="4" height="40" fill="black"/>
<rect x="768" y="4" width="4" height="40" fill="black"/>
<rect x="788" y="4" width="4" height="40" fill="black"/>
<rect x="800" width="200" height="4" fill="black"/>
<rect x="800" y="44" width="200" height="4" fill="black"/>
<rect x="810" y="4" width="4" height="40" fill="black"/>
<rect x="830" y="4" width="4" height="40" fill="black"/>
<rect x="850" y="4" width="4" height="40" fill="black"/>
<rect x="870" y="4" width="4" height="40" fill="black"/>
<rect x="890" y="4" width="4" height="40" fill="black"/>
<rect x="910" y="4" width="4" height="40" fill="black"/>
<rect x="930" y="4" width="4" height="40" fill="black"/>
<rect x="950" y="4" width="4" height="40" fill="black"/>
<rect x="968" y="4" width="4" height="40" fill="black"/>
<rect x="988" y="4" width="4" height="40" fill="black"/>
<rect x="1000" width="200" height="4" fill="black"/>
<rect x="1000" y="44" width="200" height="4" fill="black"/>
<rect x="1010" y="4" width="4" height="40" fill="black"/>
<rect x="1030" y="4" width="4" height="40" fill="black"/>
<rect x="1050" y="4" width="4" height="40" fill="black"/>
<rect x="1070" y="4" width="4" height="40" fill="black"/>
<rect x="1090" y="4" width="4" height="40" fill="black"/>
<rect x="1110" y="4" width="4" height="40" fill="black"/>
<rect x="1130" y="4" width="4" height="40" fill="black"/>
<rect x="1150" y="4" width="4" height="40" fill="black"/>
<rect x="1168" y="4" width="4" height="40" fill="black"/>
<rect x="1188" y="4" width="4" height="40" fill="black"/>
</svg>
