<svg width="301" height="41" viewBox="0 0 301 41" fill="none" xmlns="http://www.w3.org/2000/svg">
<path d="M169.676 36.162C169.676 38.378 170.847 40.174 172.292 40.174C173.737 40.174 174.909 38.378 174.909 36.162C174.909 33.946 173.737 32.15 172.292 32.15C170.847 32.15 169.676 33.946 169.676 36.162Z" fill="#37474F"/>
<path d="M176.186 36.162C176.186 38.378 177.358 40.174 178.803 40.174C180.248 40.174 181.419 38.378 181.419 36.162C181.419 33.946 180.248 32.15 178.803 32.15C177.358 32.15 176.186 33.946 176.186 36.162Z" fill="#37474F"/>
<path d="M178.803 38.349C178.015 38.349 177.377 37.3699 177.377 36.162C177.377 34.9542 178.015 33.975 178.803 33.975C179.591 33.975 180.229 34.9542 180.229 36.162C180.229 37.3699 179.591 38.349 178.803 38.349Z" fill="#546E7A"/>
<path d="M172.292 38.349C171.504 38.349 170.866 37.3699 170.866 36.162C170.866 34.9542 171.504 33.975 172.292 33.975C173.08 33.975 173.718 34.9542 173.718 36.162C173.718 37.3699 173.08 38.349 172.292 38.349Z" fill="#546E7A"/>
<path d="M120.952 36.162C120.952 38.378 122.123 40.174 123.568 40.174C125.013 40.174 126.185 38.378 126.185 36.162C126.185 33.946 125.013 32.15 123.568 32.15C122.123 32.15 120.952 33.946 120.952 36.162Z" fill="#37474F"/>
<path d="M127.462 36.162C127.462 38.378 128.634 40.174 130.079 40.174C131.524 40.174 132.695 38.378 132.695 36.162C132.695 33.946 131.524 32.15 130.079 32.15C128.634 32.15 127.462 33.946 127.462 36.162Z" fill="#37474F"/>
<path d="M130.079 38.349C129.291 38.349 128.653 37.3699 128.653 36.162C128.653 34.9542 129.291 33.975 130.079 33.975C130.867 33.975 131.505 34.9542 131.505 36.162C131.505 37.3699 130.867 38.349 130.079 38.349Z" fill="#546E7A"/>
<path d="M123.568 38.349C122.78 38.349 122.142 37.3699 122.142 36.162C122.142 34.9542 122.78 33.975 123.568 33.975C124.356 33.975 124.995 34.9542 124.995 36.162C124.995 37.3699 124.356 38.349 123.568 38.349Z" fill="#546E7A"/>
<path d="M104.555 0.320007H197.816C199.108 0.320007 200.156 1.92701 200.156 3.90901V36.484C200.156 38.466 199.108 40.073 197.816 40.073H181.9L179.766 35.71H171.33L169.196 40.073H133.176L131.042 35.71H122.606L120.472 40.073H104.557C103.264 40.073 102.216 38.466 102.216 36.484V3.90901C102.215 1.92701 103.263 0.320007 104.555 0.320007Z" fill="#0288D1"/>
<path d="M269.676 36.162C269.676 38.378 270.847 40.174 272.293 40.174C273.738 40.174 274.909 38.378 274.909 36.162C274.909 33.946 273.738 32.15 272.293 32.15C270.847 32.15 269.676 33.946 269.676 36.162Z" fill="#37474F"/>
<path d="M276.187 36.162C276.187 38.378 277.358 40.174 278.803 40.174C280.248 40.174 281.42 38.378 281.42 36.162C281.42 33.946 280.248 32.15 278.803 32.15C277.358 32.15 276.187 33.946 276.187 36.162Z" fill="#37474F"/>
<path d="M278.803 38.349C278.015 38.349 277.376 37.3699 277.376 36.162C277.376 34.9542 278.015 33.975 278.803 33.975C279.59 33.975 280.229 34.9542 280.229 36.162C280.229 37.3699 279.59 38.349 278.803 38.349Z" fill="#546E7A"/>
<path d="M272.292 38.349C271.504 38.349 270.866 37.3699 270.866 36.162C270.866 34.9542 271.504 33.975 272.292 33.975C273.08 33.975 273.718 34.9542 273.718 36.162C273.718 37.3699 273.08 38.349 272.292 38.349Z" fill="#546E7A"/>
<path d="M220.951 36.162C220.951 38.378 222.123 40.174 223.568 40.174C225.013 40.174 226.184 38.378 226.184 36.162C226.184 33.946 225.013 32.15 223.568 32.15C222.123 32.15 220.951 33.946 220.951 36.162Z" fill="#37474F"/>
<path d="M227.462 36.162C227.462 38.378 228.633 40.174 230.079 40.174C231.524 40.174 232.695 38.378 232.695 36.162C232.695 33.946 231.524 32.15 230.079 32.15C228.634 32.15 227.462 33.946 227.462 36.162Z" fill="#37474F"/>
<path d="M230.079 38.349C229.291 38.349 228.652 37.3699 228.652 36.162C228.652 34.9542 229.291 33.975 230.079 33.975C230.866 33.975 231.505 34.9542 231.505 36.162C231.505 37.3699 230.866 38.349 230.079 38.349Z" fill="#546E7A"/>
<path d="M223.568 38.349C222.78 38.349 222.142 37.3699 222.142 36.162C222.142 34.9542 222.78 33.975 223.568 33.975C224.356 33.975 224.994 34.9542 224.994 36.162C224.994 37.3699 224.356 38.349 223.568 38.349Z" fill="#546E7A"/>
<path d="M203.923 0.320007H280.346C291.286 0.320007 300.156 13.919 300.156 30.696V37.455C300.156 38.901 299.392 40.073 298.449 40.073H281.9L279.766 35.71H271.33L269.196 40.073H233.176L231.042 35.71H222.606L220.472 40.073H203.923C202.98 40.073 202.216 38.901 202.216 37.455V2.93801C202.215 1.49201 202.979 0.320007 203.923 0.320007Z" fill="#0288D1"/>
<path d="M121.374 19.661H180.996C181.75 19.661 182.361 18.724 182.361 17.568V7.13298C182.361 5.97698 181.75 5.03998 180.996 5.03998H121.374C120.62 5.03998 120.009 5.97698 120.009 7.13298V17.568C120.009 18.724 120.62 19.661 121.374 19.661Z" fill="#01579B"/>
<path d="M186.747 5.039H194.07C194.846 5.039 195.474 6.003 195.474 7.192V35.099C195.474 36.288 194.846 37.252 194.07 37.252H186.747C185.971 37.252 185.343 36.288 185.343 35.099V7.192C185.343 6.003 185.971 5.039 186.747 5.039Z" fill="#01579B"/>
<path d="M188.338 8.69501H192.479C193.106 8.69501 193.614 9.475 193.614 10.436V14.264C193.614 15.226 193.105 16.005 192.479 16.005H188.338C187.711 16.005 187.203 15.225 187.203 14.264V10.436C187.203 9.474 187.711 8.69501 188.338 8.69501Z" fill="#80DEEA"/>
<path d="M191.598 8.69503L193.615 13.771V14.264C193.615 15.226 193.106 16.005 192.479 16.005H191.769L188.864 8.69403L191.598 8.69503Z" fill="#B2EBF2"/>
<path d="M108.301 5.039H115.624C116.399 5.039 117.028 6.003 117.028 7.192V35.099C117.028 36.288 116.399 37.252 115.624 37.252H108.301C107.525 37.252 106.897 36.288 106.897 35.099V7.192C106.896 6.003 107.525 5.039 108.301 5.039Z" fill="#01579B"/>
<path d="M109.892 8.69501H114.033C114.66 8.69501 115.168 9.475 115.168 10.436V14.264C115.168 15.226 114.66 16.005 114.033 16.005H109.892C109.265 16.005 108.757 15.225 108.757 14.264V10.436C108.756 9.474 109.265 8.69501 109.892 8.69501Z" fill="#80DEEA"/>
<path d="M173.477 8.69501H177.618C178.245 8.69501 178.753 9.475 178.753 10.436V14.264C178.753 15.226 178.244 16.005 177.618 16.005H173.477C172.85 16.005 172.342 15.225 172.342 14.264V10.436C172.342 9.474 172.85 8.69501 173.477 8.69501Z" fill="#80DEEA"/>
<path d="M163.732 8.69501H167.873C168.5 8.69501 169.008 9.475 169.008 10.436V14.264C169.008 15.226 168.5 16.005 167.873 16.005H163.732C163.105 16.005 162.597 15.225 162.597 14.264V10.436C162.597 9.474 163.105 8.69501 163.732 8.69501Z" fill="#80DEEA"/>
<path d="M153.987 8.69501H158.128C158.756 8.69501 159.264 9.475 159.264 10.436V14.264C159.264 15.226 158.755 16.005 158.128 16.005H153.987C153.36 16.005 152.852 15.225 152.852 14.264V10.436C152.852 9.474 153.36 8.69501 153.987 8.69501Z" fill="#80DEEA"/>
<path d="M144.243 8.69501H148.383C149.011 8.69501 149.519 9.475 149.519 10.436V14.264C149.519 15.226 149.01 16.005 148.383 16.005H144.243C143.615 16.005 143.107 15.225 143.107 14.264V10.436C143.107 9.474 143.615 8.69501 144.243 8.69501Z" fill="#80DEEA"/>
<path d="M134.498 8.69501H138.639C139.266 8.69501 139.774 9.475 139.774 10.436V14.264C139.774 15.226 139.265 16.005 138.639 16.005H134.498C133.871 16.005 133.363 15.225 133.363 14.264V10.436C133.363 9.474 133.871 8.69501 134.498 8.69501Z" fill="#80DEEA"/>
<path d="M124.753 8.69501H128.894C129.521 8.69501 130.029 9.475 130.029 10.436V14.264C130.029 15.226 129.521 16.005 128.894 16.005H124.753C124.126 16.005 123.618 15.225 123.618 14.264V10.436C123.617 9.474 124.126 8.69501 124.753 8.69501Z" fill="#80DEEA"/>
<path d="M173.477 8.69501H177.618C178.245 8.69501 178.753 9.475 178.753 10.436V14.264C178.753 15.226 178.244 16.005 177.618 16.005H173.477C172.85 16.005 172.342 15.225 172.342 14.264V10.436C172.342 9.474 172.85 8.69501 173.477 8.69501Z" fill="#80DEEA"/>
<path d="M176.737 8.69503L178.754 13.771V14.264C178.754 15.226 178.245 16.005 177.618 16.005H176.908L174.003 8.69403L176.737 8.69503Z" fill="#B2EBF2"/>
<path d="M163.732 8.69501H167.873C168.5 8.69501 169.008 9.475 169.008 10.436V14.264C169.008 15.226 168.5 16.005 167.873 16.005H163.732C163.105 16.005 162.597 15.225 162.597 14.264V10.436C162.597 9.474 163.105 8.69501 163.732 8.69501Z" fill="#80DEEA"/>
<path d="M166.992 8.69503L169.009 13.771V14.264C169.009 15.226 168.5 16.005 167.874 16.005H167.164L164.259 8.69403L166.992 8.69503Z" fill="#B2EBF2"/>
<path d="M153.987 8.69501H158.128C158.756 8.69501 159.264 9.475 159.264 10.436V14.264C159.264 15.226 158.755 16.005 158.128 16.005H153.987C153.36 16.005 152.852 15.225 152.852 14.264V10.436C152.852 9.474 153.36 8.69501 153.987 8.69501Z" fill="#80DEEA"/>
<path d="M157.247 8.69503L159.264 13.771V14.264C159.264 15.226 158.756 16.005 158.129 16.005H157.419L154.514 8.69403L157.247 8.69503Z" fill="#B2EBF2"/>
<path d="M144.243 8.69501H148.383C149.011 8.69501 149.519 9.475 149.519 10.436V14.264C149.519 15.226 149.01 16.005 148.383 16.005H144.243C143.615 16.005 143.107 15.225 143.107 14.264V10.436C143.107 9.474 143.615 8.69501 144.243 8.69501Z" fill="#80DEEA"/>
<path d="M147.502 8.69503L149.52 13.771V14.264C149.52 15.226 149.011 16.005 148.384 16.005H147.674L144.769 8.69403L147.502 8.69503Z" fill="#B2EBF2"/>
<path d="M134.498 8.69501H138.639C139.266 8.69501 139.774 9.475 139.774 10.436V14.264C139.774 15.226 139.265 16.005 138.639 16.005H134.498C133.871 16.005 133.363 15.225 133.363 14.264V10.436C133.362 9.474 133.871 8.69501 134.498 8.69501Z" fill="#80DEEA"/>
<path d="M137.758 8.69503L139.775 13.771V14.264C139.775 15.226 139.266 16.005 138.639 16.005H137.929L135.024 8.69403L137.758 8.69503Z" fill="#B2EBF2"/>
<path d="M124.753 8.69501H128.894C129.521 8.69501 130.029 9.475 130.029 10.436V14.264C130.029 15.226 129.52 16.005 128.894 16.005H124.753C124.126 16.005 123.618 15.225 123.618 14.264V10.436C123.617 9.474 124.126 8.69501 124.753 8.69501Z" fill="#80DEEA"/>
<path d="M128.013 8.69503L130.03 13.771V14.264C130.03 15.226 129.521 16.005 128.894 16.005H128.184L125.279 8.69403L128.013 8.69503Z" fill="#B2EBF2"/>
<path d="M109.892 8.69501H114.033C114.66 8.69501 115.168 9.475 115.168 10.436V14.264C115.168 15.226 114.659 16.005 114.033 16.005H109.892C109.265 16.005 108.757 15.225 108.757 14.264V10.436C108.756 9.474 109.265 8.69501 109.892 8.69501Z" fill="#80DEEA"/>
<path d="M113.152 8.69503L115.169 13.771V14.264C115.169 15.226 114.66 16.005 114.033 16.005H113.323L110.418 8.69403L113.152 8.69503Z" fill="#B2EBF2"/>
<path d="M188.338 8.69501H192.479C193.106 8.69501 193.614 9.475 193.614 10.436V14.264C193.614 15.226 193.106 16.005 192.479 16.005H188.338C187.711 16.005 187.203 15.225 187.203 14.264V10.436C187.203 9.474 187.711 8.69501 188.338 8.69501Z" fill="#80DEEA"/>
<path d="M191.598 8.69503L193.615 13.771V14.264C193.615 15.226 193.106 16.005 192.48 16.005H191.769L188.865 8.69403L191.598 8.69503Z" fill="#B2EBF2"/>
<path d="M102.215 25.885H200.114V30.864H102.215V25.885Z" fill="#37474F"/>
<path d="M223.313 19.661H251.321C251.986 19.661 252.526 18.833 252.526 17.811V6.889C252.526 5.868 251.986 5.039 251.321 5.039H223.313C222.646 5.039 222.106 5.867 222.106 6.889V17.812C222.106 18.833 222.646 19.661 223.313 19.661Z" fill="#01579B"/>
<path d="M298.919 20.118H281.088C280.664 20.118 280.271 19.786 280.043 19.238L274.959 6.988C274.609 6.144 275.004 5.039 275.657 5.039H290.945C294.573 8.57 297.401 13.853 298.919 20.118Z" fill="#80DEEA"/>
<path d="M276.945 18.236L271.704 5.60698C271.557 5.25398 271.302 5.03998 271.03 5.03998H268.095C267.654 5.03998 267.296 5.58798 267.296 6.26498V18.894C267.296 19.571 267.654 20.119 268.095 20.119H276.271C276.901 20.118 277.284 19.051 276.945 18.236Z" fill="#80DEEA"/>
<path d="M255.886 5.039H263.21C263.986 5.039 264.615 6.003 264.615 7.192V35.099C264.615 36.288 263.986 37.252 263.21 37.252H255.886C255.111 37.252 254.482 36.288 254.482 35.099V7.192C254.482 6.003 255.111 5.039 255.886 5.039Z" fill="#01579B"/>
<path d="M257.478 8.69501H261.619C262.246 8.69501 262.755 9.475 262.755 10.436V14.264C262.755 15.226 262.246 16.005 261.619 16.005H257.478C256.851 16.005 256.343 15.225 256.343 14.264V10.436C256.342 9.474 256.851 8.69501 257.478 8.69501Z" fill="#80DEEA"/>
<path d="M207.987 5.039H215.31C216.086 5.039 216.714 6.003 216.714 7.192V35.099C216.714 36.288 216.086 37.252 215.31 37.252H207.987C207.211 37.252 206.583 36.288 206.583 35.099V7.192C206.583 6.003 207.211 5.039 207.987 5.039Z" fill="#01579B"/>
<path d="M209.578 8.69501H213.719C214.346 8.69501 214.854 9.475 214.854 10.436V14.264C214.854 15.226 214.345 16.005 213.719 16.005H209.578C208.951 16.005 208.443 15.225 208.443 14.264V10.436C208.443 9.474 208.951 8.69501 209.578 8.69501Z" fill="#80DEEA"/>
<path d="M212.838 8.69503L214.855 13.771V14.264C214.855 15.226 214.346 16.005 213.719 16.005H213.009L210.104 8.69403L212.838 8.69503Z" fill="#B2EBF2"/>
<path d="M244.962 8.69501H249.102C249.73 8.69501 250.238 9.475 250.238 10.436V14.264C250.238 15.226 249.729 16.005 249.102 16.005H244.962C244.334 16.005 243.826 15.225 243.826 14.264V10.436C243.826 9.474 244.334 8.69501 244.962 8.69501Z" fill="#80DEEA"/>
<path d="M235.277 8.69501H239.418C240.045 8.69501 240.553 9.475 240.553 10.436V14.264C240.553 15.226 240.045 16.005 239.418 16.005H235.277C234.65 16.005 234.142 15.225 234.142 14.264V10.436C234.141 9.474 234.65 8.69501 235.277 8.69501Z" fill="#80DEEA"/>
<path d="M202.215 25.885H300.114V30.864H202.215V25.885Z" fill="#37474F"/>
<path d="M293.891 20.118H291.157L285.166 5.039H287.9L293.891 20.118Z" fill="#B2EBF2"/>
<path d="M267.296 6.264C267.296 5.588 267.654 5.039 268.095 5.039H269.417L275.409 20.118H272.675L267.296 6.581V6.264Z" fill="#B2EBF2"/>
<path d="M260.826 8.69501L262.754 13.548V14.265C262.754 15.227 262.245 16.006 261.618 16.006H260.997L258.092 8.69501H260.826Z" fill="#B2EBF2"/>
<path d="M247.987 8.69501L250.233 14.346C250.204 15.269 249.712 16.006 249.103 16.006H248.158L245.253 8.69501H247.987Z" fill="#B2EBF2"/>
<path d="M238.419 8.69503L240.553 14.065V14.264C240.553 15.226 240.045 16.005 239.418 16.005H238.591L235.686 8.69403L238.419 8.69503Z" fill="#B2EBF2"/>
<path d="M225.592 8.69501H229.732C230.36 8.69501 230.868 9.475 230.868 10.436V14.264C230.868 15.226 230.359 16.005 229.732 16.005H225.592C224.964 16.005 224.456 15.225 224.456 14.264V10.436C224.456 9.474 224.965 8.69501 225.592 8.69501Z" fill="#80DEEA"/>
<path d="M228.851 8.69503L230.868 13.771V14.264C230.868 15.226 230.36 16.005 229.733 16.005H229.023L226.118 8.69403L228.851 8.69503Z" fill="#B2EBF2"/>
<path d="M289.909 20.118H285.571L279.58 5.039H283.918L289.909 20.118Z" fill="#B2EBF2"/>
<path d="M200.156 5.46399H202.215V34.929H200.156V5.46399Z" fill="#455A64"/>
<path d="M72.2923 40.174C70.8472 40.174 69.6758 38.3778 69.6758 36.162C69.6758 33.9463 70.8472 32.15 72.2923 32.15C73.7374 32.15 74.9088 33.9463 74.9088 36.162C74.9088 38.3778 73.7374 40.174 72.2923 40.174Z" fill="#37474F"/>
<path d="M78.8029 40.174C77.3579 40.174 76.1864 38.3778 76.1864 36.162C76.1864 33.9463 77.3579 32.15 78.8029 32.15C80.248 32.15 81.4194 33.9463 81.4194 36.162C81.4194 38.3778 80.248 40.174 78.8029 40.174Z" fill="#37474F"/>
<path d="M78.803 38.349C78.0152 38.349 77.3766 37.3699 77.3766 36.162C77.3766 34.9542 78.0152 33.975 78.803 33.975C79.5907 33.975 80.2292 34.9542 80.2292 36.162C80.2292 37.3699 79.5907 38.349 78.803 38.349Z" fill="#546E7A"/>
<path d="M72.2923 38.349C71.5046 38.349 70.866 37.3699 70.866 36.162C70.866 34.9542 71.5046 33.975 72.2923 33.975C73.0801 33.975 73.7186 34.9542 73.7186 36.162C73.7186 37.3699 73.0801 38.349 72.2923 38.349Z" fill="#546E7A"/>
<path d="M20.9519 36.162C20.9519 38.378 22.1232 40.174 23.5684 40.174C25.0136 40.174 26.1849 38.378 26.1849 36.162C26.1849 33.946 25.0136 32.15 23.5684 32.15C22.1232 32.15 20.9519 33.946 20.9519 36.162Z" fill="#37474F"/>
<path d="M27.4625 36.162C27.4625 38.378 28.6338 40.174 30.079 40.174C31.5242 40.174 32.6956 38.378 32.6956 36.162C32.6956 33.946 31.5242 32.15 30.079 32.15C28.6338 32.15 27.4625 33.946 27.4625 36.162Z" fill="#37474F"/>
<path d="M30.0791 38.349C29.2913 38.349 28.6528 37.3699 28.6528 36.162C28.6528 34.9542 29.2913 33.975 30.0791 33.975C30.8668 33.975 31.5054 34.9542 31.5054 36.162C31.5054 37.3699 30.8668 38.349 30.0791 38.349Z" fill="#546E7A"/>
<path d="M23.5684 38.349C22.7807 38.349 22.1421 37.3699 22.1421 36.162C22.1421 34.9542 22.7807 33.975 23.5684 33.975C24.3562 33.975 24.9948 34.9542 24.9948 36.162C24.9948 37.3699 24.3562 38.349 23.5684 38.349Z" fill="#546E7A"/>
<path d="M4.55554 0.320007H97.8151C99.1077 0.320007 100.156 1.92701 100.156 3.90901V36.484C100.156 38.466 99.1077 40.073 97.8151 40.073H81.8994L79.7655 35.71H71.3297L69.1958 40.073H33.1755L31.0416 35.71H22.6058L20.4718 40.073H4.55619C3.26359 40.073 2.21553 38.466 2.21553 36.484V3.90901C2.21488 1.92701 3.26293 0.320007 4.55554 0.320007Z" fill="#0288D1"/>
<path d="M21.3746 19.661H80.9963C81.7502 19.661 82.3613 18.724 82.3613 17.568V7.13298C82.3613 5.97698 81.7502 5.03998 80.9963 5.03998H21.3746C20.6207 5.03998 20.0096 5.97698 20.0096 7.13298V17.568C20.0096 18.724 20.6207 19.661 21.3746 19.661Z" fill="#01579B"/>
<path d="M86.7471 5.039H94.0704C94.8458 5.039 95.4745 6.003 95.4745 7.192V35.099C95.4745 36.288 94.8458 37.252 94.0704 37.252H86.7471C85.9717 37.252 85.343 36.288 85.343 35.099V7.192C85.343 6.003 85.9717 5.039 86.7471 5.039Z" fill="#01579B"/>
<path d="M88.3383 8.69501H92.4789C93.1063 8.69501 93.6144 9.475 93.6144 10.436V14.264C93.6144 15.226 93.1057 16.005 92.4789 16.005H88.3383C87.7109 16.005 87.2028 15.225 87.2028 14.264V10.436C87.2022 9.474 87.7109 8.69501 88.3383 8.69501Z" fill="#80DEEA"/>
<path d="M91.5979 8.69503L93.6151 13.771V14.264C93.6151 15.226 93.1064 16.005 92.4797 16.005H91.7695L88.8647 8.69403L91.5979 8.69503Z" fill="#B2EBF2"/>
<path d="M8.30033 5.039H15.6236C16.399 5.039 17.0277 6.003 17.0277 7.192V35.099C17.0277 36.288 16.399 37.252 15.6236 37.252H8.30033C7.52489 37.252 6.89619 36.288 6.89619 35.099V7.192C6.89619 6.003 7.52489 5.039 8.30033 5.039Z" fill="#01579B"/>
<path d="M9.89176 8.69501H14.0324C14.6598 8.69501 15.1678 9.475 15.1678 10.436V14.264C15.1678 15.226 14.6592 16.005 14.0324 16.005H9.89176C9.26437 16.005 8.75633 15.225 8.75633 14.264V10.436C8.75633 9.474 9.26502 8.69501 9.89176 8.69501Z" fill="#80DEEA"/>
<path d="M73.4773 8.69501H77.618C78.2454 8.69501 78.7534 9.475 78.7534 10.436V14.264C78.7534 15.226 78.2447 16.005 77.618 16.005H73.4773C72.8499 16.005 72.3419 15.225 72.3419 14.264V10.436C72.3412 9.474 72.8499 8.69501 73.4773 8.69501Z" fill="#80DEEA"/>
<path d="M63.7326 8.69501H67.8732C68.5006 8.69501 69.0087 9.475 69.0087 10.436V14.264C69.0087 15.226 68.5 16.005 67.8732 16.005H63.7326C63.1052 16.005 62.5971 15.225 62.5971 14.264V10.436C62.5965 9.474 63.1052 8.69501 63.7326 8.69501Z" fill="#80DEEA"/>
<path d="M53.9878 8.69501H58.1285C58.7559 8.69501 59.2639 9.475 59.2639 10.436V14.264C59.2639 15.226 58.7552 16.005 58.1285 16.005H53.9878C53.3604 16.005 52.8524 15.225 52.8524 14.264V10.436C52.8517 9.474 53.3604 8.69501 53.9878 8.69501Z" fill="#80DEEA"/>
<path d="M44.2431 8.69501H48.3837C49.0111 8.69501 49.5192 9.475 49.5192 10.436V14.264C49.5192 15.226 49.0105 16.005 48.3837 16.005H44.2431C43.6157 16.005 43.1076 15.225 43.1076 14.264V10.436C43.107 9.474 43.6157 8.69501 44.2431 8.69501Z" fill="#80DEEA"/>
<path d="M34.4982 8.69501H38.6389C39.2663 8.69501 39.7743 9.475 39.7743 10.436V14.264C39.7743 15.226 39.2656 16.005 38.6389 16.005H34.4982C33.8708 16.005 33.3628 15.225 33.3628 14.264V10.436C33.3621 9.474 33.8708 8.69501 34.4982 8.69501Z" fill="#80DEEA"/>
<path d="M24.7528 8.69501H28.8935C29.5209 8.69501 30.0289 9.475 30.0289 10.436V14.264C30.0289 15.226 29.5202 16.005 28.8935 16.005H24.7528C24.1255 16.005 23.6174 15.225 23.6174 14.264V10.436C23.6174 9.474 24.1261 8.69501 24.7528 8.69501Z" fill="#80DEEA"/>
<path d="M73.4773 8.69501H77.618C78.2454 8.69501 78.7534 9.475 78.7534 10.436V14.264C78.7534 15.226 78.2447 16.005 77.618 16.005H73.4773C72.8499 16.005 72.3419 15.225 72.3419 14.264V10.436C72.3412 9.474 72.8499 8.69501 73.4773 8.69501Z" fill="#80DEEA"/>
<path d="M76.737 8.69503L78.7542 13.771V14.264C78.7542 15.226 78.2455 16.005 77.6187 16.005H76.9085L74.0037 8.69403L76.737 8.69503Z" fill="#B2EBF2"/>
<path d="M63.7325 8.69501H67.8731C68.5005 8.69501 69.0085 9.475 69.0085 10.436V14.264C69.0085 15.226 68.4999 16.005 67.8731 16.005H63.7325C63.1051 16.005 62.597 15.225 62.597 14.264V10.436C62.5964 9.474 63.1051 8.69501 63.7325 8.69501Z" fill="#80DEEA"/>
<path d="M66.9921 8.69503L69.0093 13.771V14.264C69.0093 15.226 68.5006 16.005 67.8738 16.005H67.1636L64.2588 8.69403L66.9921 8.69503Z" fill="#B2EBF2"/>
<path d="M53.9877 8.69501H58.1284C58.7558 8.69501 59.2638 9.475 59.2638 10.436V14.264C59.2638 15.226 58.7551 16.005 58.1284 16.005H53.9877C53.3603 16.005 52.8523 15.225 52.8523 14.264V10.436C52.8516 9.474 53.3603 8.69501 53.9877 8.69501Z" fill="#80DEEA"/>
<path d="M57.2474 8.69503L59.2645 13.771V14.264C59.2645 15.226 58.7558 16.005 58.1291 16.005H57.4189L54.5141 8.69403L57.2474 8.69503Z" fill="#B2EBF2"/>
<path d="M44.243 8.69501H48.3836C49.011 8.69501 49.519 9.475 49.519 10.436V14.264C49.519 15.226 49.0103 16.005 48.3836 16.005H44.243C43.6156 16.005 43.1075 15.225 43.1075 14.264V10.436C43.1069 9.474 43.6156 8.69501 44.243 8.69501Z" fill="#80DEEA"/>
<path d="M47.5026 8.69503L49.5198 13.771V14.264C49.5198 15.226 49.0111 16.005 48.3843 16.005H47.6741L44.7693 8.69403L47.5026 8.69503Z" fill="#B2EBF2"/>
<path d="M34.4982 8.69501H38.6389C39.2663 8.69501 39.7743 9.475 39.7743 10.436V14.264C39.7743 15.226 39.2656 16.005 38.6389 16.005H34.4982C33.8708 16.005 33.3628 15.225 33.3628 14.264V10.436C33.3621 9.474 33.8708 8.69501 34.4982 8.69501Z" fill="#80DEEA"/>
<path d="M37.7571 8.69503L39.7743 13.771V14.264C39.7743 15.226 39.2656 16.005 38.6389 16.005H37.9286L35.0239 8.69403L37.7571 8.69503Z" fill="#B2EBF2"/>
<path d="M24.7527 8.69501H28.8934C29.5208 8.69501 30.0288 9.475 30.0288 10.436V14.264C30.0288 15.226 29.5201 16.005 28.8934 16.005H24.7527C24.1253 16.005 23.6173 15.225 23.6173 14.264V10.436C23.6173 9.474 24.126 8.69501 24.7527 8.69501Z" fill="#80DEEA"/>
<path d="M28.0124 8.69503L30.0295 13.771V14.264C30.0295 15.226 29.5208 16.005 28.8941 16.005H28.1839L25.2791 8.69403L28.0124 8.69503Z" fill="#B2EBF2"/>
<path d="M9.89164 8.69501H14.0323C14.6597 8.69501 15.1677 9.475 15.1677 10.436V14.264C15.1677 15.226 14.659 16.005 14.0323 16.005H9.89164C9.26425 16.005 8.75621 15.225 8.75621 14.264V10.436C8.75621 9.474 9.2649 8.69501 9.89164 8.69501Z" fill="#80DEEA"/>
<path d="M13.1513 8.69503L15.1685 13.771V14.264C15.1685 15.226 14.6598 16.005 14.033 16.005H13.3228L10.418 8.69403L13.1513 8.69503Z" fill="#B2EBF2"/>
<path d="M88.3384 8.69501H92.4791C93.1065 8.69501 93.6145 9.475 93.6145 10.436V14.264C93.6145 15.226 93.1058 16.005 92.4791 16.005H88.3384C87.711 16.005 87.203 15.225 87.203 14.264V10.436C87.2023 9.474 87.711 8.69501 88.3384 8.69501Z" fill="#80DEEA"/>
<path d="M91.5981 8.69503L93.6152 13.771V14.264C93.6152 15.226 93.1065 16.005 92.4798 16.005H91.7696L88.8648 8.69403L91.5981 8.69503Z" fill="#B2EBF2"/>
<path d="M2.21493 25.885H100.113V30.864H2.21493V25.885Z" fill="#37474F"/>
<path d="M100.156 5.46399H102.215V34.929H100.156V5.46399Z" fill="#455A64"/>
<path d="M0.155922 5.46399H2.21484V34.929H0.155922V5.46399Z" fill="#455A64"/>
</svg>
