<svg width="301" height="42" viewBox="0 0 301 42" fill="none" xmlns="http://www.w3.org/2000/svg">
<path d="M287.525 36.711C287.525 39.129 288.804 41.089 290.381 41.089C291.957 41.089 293.236 39.129 293.236 36.711C293.236 34.293 291.957 32.333 290.381 32.333C288.804 32.333 287.525 34.293 287.525 36.711Z" fill="#37474F"/>
<path d="M280.736 36.711C280.736 39.129 282.014 41.089 283.591 41.089C285.168 41.089 286.447 39.129 286.447 36.711C286.447 34.293 285.168 32.333 283.591 32.333C282.015 32.333 280.736 34.293 280.736 36.711Z" fill="#37474F"/>
<path d="M215.88 36.711C215.88 39.129 217.158 41.089 218.735 41.089C220.312 41.089 221.59 39.129 221.59 36.711C221.59 34.293 220.312 32.333 218.735 32.333C217.158 32.333 215.88 34.293 215.88 36.711Z" fill="#37474F"/>
<path d="M209.091 36.711C209.091 39.129 210.369 41.089 211.946 41.089C213.523 41.089 214.801 39.129 214.801 36.711C214.801 34.293 213.523 32.333 211.946 32.333C210.37 32.333 209.091 34.293 209.091 36.711Z" fill="#37474F"/>
<path d="M202.171 0.417969H277.983C279.682 0.417969 281.364 0.917966 282.935 1.90897C286.215 3.97797 291.906 8.29198 296.221 15.411C298.777 19.627 300.156 25.212 300.156 30.968V36.711H202.171V0.417969Z" fill="#90A4AE"/>
<path d="M282.935 1.90894C284.352 2.80194 286.218 4.11695 288.229 5.89295H202.172V0.418947H277.983C279.682 0.417947 281.364 0.917937 282.935 1.90894Z" fill="#CFD8DC"/>
<path d="M286.436 20.7149V10.674H292.854C294.022 12.091 295.163 13.6649 296.221 15.4109C297.187 17.0049 297.984 18.7949 298.603 20.7159H286.436V20.7149Z" fill="#37474F"/>
<path d="M216.168 10.674H273.38V20.7149H216.168V10.674Z" fill="#37474F"/>
<path d="M262.269 12.587H271.213V18.803H262.269V12.587Z" fill="#80DEEA"/>
<path d="M251.286 12.587H260.229V18.803H251.286V12.587Z" fill="#80DEEA"/>
<path d="M240.303 12.587H249.246V18.803H240.303V12.587Z" fill="#80DEEA"/>
<path d="M229.32 12.587H238.263V18.803H229.32V12.587Z" fill="#80DEEA"/>
<path d="M218.336 12.587H227.279V18.803H218.336V12.587Z" fill="#80DEEA"/>
<path d="M275.413 10.674H283.88V36.7109H275.413V10.674Z" fill="#37474F"/>
<path d="M205.669 10.674H214.136V36.7109H205.669V10.674Z" fill="#37474F"/>
<path d="M276.866 12.587H282.427V18.803H276.866V12.587Z" fill="#80DEEA"/>
<path d="M207.123 12.587H212.683V18.803H207.123V12.587Z" fill="#80DEEA"/>
<path d="M286.436 23.693H299.382C299.882 26.024 300.156 28.476 300.156 30.968V36.711H286.436V23.693Z" fill="#CFD8DC"/>
<path d="M202.171 32.6689H300.156V36.7109H202.171V32.6689Z" fill="#37474F"/>
<path d="M200.307 4.88599H202.171V32.244H200.307V4.88599Z" fill="#37474F"/>
<path d="M187.677 36.711C187.677 39.129 188.955 41.089 190.532 41.089C192.109 41.089 193.387 39.129 193.387 36.711C193.387 34.293 192.109 32.333 190.532 32.333C188.955 32.333 187.677 34.293 187.677 36.711Z" fill="#37474F"/>
<path d="M180.888 36.711C180.888 39.129 182.166 41.089 183.743 41.089C185.32 41.089 186.598 39.129 186.598 36.711C186.598 34.293 185.32 32.333 183.743 32.333C182.166 32.333 180.888 34.293 180.888 36.711Z" fill="#37474F"/>
<path d="M116.031 36.711C116.031 39.129 117.309 41.089 118.886 41.089C120.463 41.089 121.741 39.129 121.741 36.711C121.741 34.293 120.463 32.333 118.886 32.333C117.31 32.333 116.031 34.293 116.031 36.711Z" fill="#37474F"/>
<path d="M109.243 36.711C109.243 39.129 110.521 41.089 112.098 41.089C113.675 41.089 114.953 39.129 114.953 36.711C114.953 34.293 113.675 32.333 112.098 32.333C110.521 32.333 109.243 34.293 109.243 36.711Z" fill="#37474F"/>
<path d="M167.328 0.417969H178.134H200.307V30.968V36.711H102.323V0.417969H167.328Z" fill="#90A4AE"/>
<path d="M188.38 5.89297H102.323V0.417969H200.307V5.89297H188.38Z" fill="#CFD8DC"/>
<path d="M116.32 10.674H186.082V20.7149H116.32V10.674Z" fill="#37474F"/>
<path d="M163.241 12.587H172.184V18.803H163.241V12.587Z" fill="#80DEEA"/>
<path d="M174.249 12.587H183.193V18.803H174.249V12.587Z" fill="#80DEEA"/>
<path d="M152.233 12.587H161.176V18.803H152.233V12.587Z" fill="#80DEEA"/>
<path d="M141.225 12.587H150.168V18.803H141.225V12.587Z" fill="#80DEEA"/>
<path d="M130.217 12.587H139.16V18.803H130.217V12.587Z" fill="#80DEEA"/>
<path d="M119.209 12.587H128.152V18.803H119.209V12.587Z" fill="#80DEEA"/>
<path d="M188.221 10.674H196.688V36.7109H188.221V10.674Z" fill="#37474F"/>
<path d="M105.82 10.674H114.287V36.7109H105.82V10.674Z" fill="#37474F"/>
<path d="M189.674 12.587H195.235V18.803H189.674V12.587Z" fill="#80DEEA"/>
<path d="M107.274 12.587H112.834V18.803H107.274V12.587Z" fill="#80DEEA"/>
<path d="M102.322 32.6689H200.307V36.7109H102.322V32.6689Z" fill="#37474F"/>
<path d="M100.162 4.88599H102.323V32.244H100.162V4.88599Z" fill="#37474F"/>
<path d="M87.6713 36.711C87.6713 39.129 88.9495 41.089 90.5265 41.089C92.1034 41.089 93.3817 39.129 93.3817 36.711C93.3817 34.293 92.1034 32.333 90.5265 32.333C88.9495 32.333 87.6713 34.293 87.6713 36.711Z" fill="#37474F"/>
<path d="M80.8821 36.711C80.8821 39.129 82.1603 41.089 83.7373 41.089C85.3143 41.089 86.5925 39.129 86.5925 36.711C86.5925 34.293 85.3143 32.333 83.7373 32.333C82.1603 32.333 80.8821 34.293 80.8821 36.711Z" fill="#37474F"/>
<path d="M16.0254 36.711C16.0254 39.129 17.3037 41.089 18.8806 41.089C20.4576 41.089 21.7358 39.129 21.7358 36.711C21.7358 34.293 20.4576 32.333 18.8806 32.333C17.3043 32.333 16.0254 34.293 16.0254 36.711Z" fill="#37474F"/>
<path d="M9.23684 36.711C9.23684 39.129 10.5151 41.089 12.0921 41.089C13.669 41.089 14.9473 39.129 14.9473 36.711C14.9473 34.293 13.669 32.333 12.0921 32.333C10.5151 32.333 9.23684 34.293 9.23684 36.711Z" fill="#37474F"/>
<path d="M67.3221 0.417969H78.1287H100.301V30.968V36.711H2.31735V0.417969H67.3221Z" fill="#90A4AE"/>
<path d="M88.3743 5.89297H2.31735V0.417969H100.301V5.89297H88.3743Z" fill="#CFD8DC"/>
<path d="M16.3143 10.674H86.0767V20.7149H16.3143V10.674Z" fill="#37474F"/>
<path d="M63.2356 12.587H72.1788V18.803H63.2356V12.587Z" fill="#80DEEA"/>
<path d="M74.2436 12.587H83.1869V18.803H74.2436V12.587Z" fill="#80DEEA"/>
<path d="M52.2275 12.587H61.1708V18.803H52.2275V12.587Z" fill="#80DEEA"/>
<path d="M41.2195 12.587H50.1627V18.803H41.2195V12.587Z" fill="#80DEEA"/>
<path d="M30.2114 12.587H39.1547V18.803H30.2114V12.587Z" fill="#80DEEA"/>
<path d="M19.2033 12.587H28.1466V18.803H19.2033V12.587Z" fill="#80DEEA"/>
<path d="M88.2152 10.674H96.6824V36.7109H88.2152V10.674Z" fill="#37474F"/>
<path d="M5.81432 10.674H14.2815V36.7109H5.81432V10.674Z" fill="#37474F"/>
<path d="M89.6688 12.587H95.2292V18.803H89.6688V12.587Z" fill="#80DEEA"/>
<path d="M7.26793 12.587H12.8284V18.803H7.26793V12.587Z" fill="#80DEEA"/>
<path d="M2.3167 32.6689H100.301V36.7109H2.3167V32.6689Z" fill="#37474F"/>
<path d="M0.155959 4.88599H2.31726V32.244H0.155959V4.88599Z" fill="#37474F"/>
</svg>
