<svg width="301" height="34" viewBox="0 0 301 34" fill="none" xmlns="http://www.w3.org/2000/svg">
<path d="M280.895 29.3559C280.895 31.7709 282.171 33.728 283.746 33.728C285.321 33.728 286.597 31.7699 286.597 29.3559C286.597 26.9409 285.321 24.9839 283.746 24.9839C282.171 24.9839 280.895 26.9419 280.895 29.3559Z" fill="#37474F"/>
<path d="M273.272 29.3559C273.272 31.7709 274.549 33.728 276.123 33.728C277.698 33.728 278.975 31.7699 278.975 29.3559C278.975 26.9409 277.698 24.9839 276.123 24.9839C274.548 24.9839 273.272 26.9419 273.272 29.3559Z" fill="#37474F"/>
<path d="M215.787 29.3559C215.787 31.7709 217.063 33.728 218.638 33.728C220.213 33.728 221.489 31.7699 221.489 29.3559C221.489 26.9409 220.212 24.9839 218.638 24.9839C217.064 24.9839 215.787 26.9419 215.787 29.3559Z" fill="#37474F"/>
<path d="M208.164 29.3559C208.164 31.7709 209.441 33.728 211.015 33.728C212.59 33.728 213.867 31.7699 213.867 29.3559C213.867 26.9409 212.59 24.9839 211.015 24.9839C209.44 24.9839 208.164 26.9419 208.164 29.3559Z" fill="#37474F"/>
<path d="M254.602 0.518982C281.17 0.940982 294.559 14.105 299.656 20.785C300.655 22.094 300.056 24.595 298.742 24.595H254.602H201.98V2.49698C201.98 1.40498 202.558 0.518982 203.27 0.518982H254.602Z" fill="#90A4AE"/>
<path d="M206.474 29.356H291.226C292.942 29.356 294.331 27.224 294.331 24.595H205.184V27.378C205.184 28.471 205.761 29.356 206.474 29.356Z" fill="#546E7A"/>
<path d="M273.504 14.135V7.29401H283.326C287.41 9.42001 290.735 11.817 293.39 14.135H273.504Z" fill="#37474F"/>
<path d="M250.09 5.75494H254.956V12.5959H250.09V5.75494Z" fill="#37474F"/>
<path d="M243.176 5.75494H248.043V12.5959H243.176V5.75494Z" fill="#37474F"/>
<path d="M236.262 5.75494H241.129V12.5959H236.262V5.75494Z" fill="#37474F"/>
<path d="M229.349 5.75494H234.215V12.5959H229.349V5.75494Z" fill="#37474F"/>
<path d="M222.435 5.75494H227.302V12.5959H222.435V5.75494Z" fill="#37474F"/>
<path d="M215.521 5.75494H220.388V12.5959H215.521V5.75494Z" fill="#37474F"/>
<path d="M257.958 3.87396H263.949V22.687H257.958V3.87396Z" fill="#B0BEC5"/>
<path d="M258.955 5.75494H262.953V9.13594H258.955V5.75494Z" fill="#37474F"/>
<path d="M206.528 3.87396H212.519V22.687H206.528V3.87396Z" fill="#B0BEC5"/>
<path d="M207.525 5.75494H211.523V9.13594H207.525V5.75494Z" fill="#37474F"/>
<path d="M268.575 17.8979H201.981V14.6089H264.046C265.801 14.6089 267.463 15.8159 268.575 17.8979Z" fill="#01579B"/>
<path d="M201.98 26.001H200.121V3.87398H201.98V26.001Z" fill="#37474F"/>
<path d="M185.884 29.3559C185.884 31.7709 187.161 33.728 188.735 33.728C190.31 33.728 191.587 31.7699 191.587 29.3559C191.587 26.9409 190.31 24.9839 188.735 24.9839C187.16 24.9839 185.884 26.9419 185.884 29.3559Z" fill="#37474F"/>
<path d="M178.261 29.3559C178.261 31.7709 179.538 33.728 181.112 33.728C182.687 33.728 183.964 31.7699 183.964 29.3559C183.964 26.9409 182.687 24.9839 181.112 24.9839C179.537 24.9839 178.261 26.9419 178.261 29.3559Z" fill="#37474F"/>
<path d="M115.651 29.3559C115.651 31.7709 116.927 33.728 118.502 33.728C120.077 33.728 121.353 31.7699 121.353 29.3559C121.353 26.9409 120.077 24.9839 118.502 24.9839C116.928 24.9839 115.651 26.9419 115.651 29.3559Z" fill="#37474F"/>
<path d="M108.029 29.3559C108.029 31.7709 109.306 33.728 110.88 33.728C112.455 33.728 113.731 31.7699 113.731 29.3559C113.731 26.9409 112.455 24.9839 110.88 24.9839C109.305 24.9839 108.029 26.9419 108.029 29.3559Z" fill="#37474F"/>
<path d="M103.321 0.518982H147.585H154.652H198.916C199.629 0.518982 200.206 1.40498 200.206 2.49698V24.595H198.793H154.653H147.586H103.445H102.032V2.49698C102.031 1.40398 102.608 0.518982 103.321 0.518982Z" fill="#90A4AE"/>
<path d="M106.523 29.356H191.276C192.991 29.356 194.381 27.224 194.381 24.595H105.233V27.378C105.233 28.471 105.811 29.356 106.523 29.356Z" fill="#546E7A"/>
<path d="M148.685 5.75494H153.552V12.5959H148.685V5.75494Z" fill="#37474F"/>
<path d="M141.798 5.75494H146.665V12.5959H141.798V5.75494Z" fill="#37474F"/>
<path d="M134.911 5.75494H139.778V12.5959H134.911V5.75494Z" fill="#37474F"/>
<path d="M128.024 5.75494H132.891V12.5959H128.024V5.75494Z" fill="#37474F"/>
<path d="M121.137 5.75494H126.004V12.5959H121.137V5.75494Z" fill="#37474F"/>
<path d="M114.25 5.75494H119.117V12.5959H114.25V5.75494Z" fill="#37474F"/>
<path d="M183.119 5.75494H187.986V12.5959H183.119V5.75494Z" fill="#37474F"/>
<path d="M176.232 5.75494H181.099V12.5959H176.232V5.75494Z" fill="#37474F"/>
<path d="M169.345 5.75494H174.212V12.5959H169.345V5.75494Z" fill="#37474F"/>
<path d="M162.458 5.75494H167.325V12.5959H162.458V5.75494Z" fill="#37474F"/>
<path d="M155.571 5.75494H160.438V12.5959H155.571V5.75494Z" fill="#37474F"/>
<path d="M190.584 3.87396H196.575V22.687H190.584V3.87396Z" fill="#B0BEC5"/>
<path d="M191.581 5.75494H195.578V9.13594H191.581V5.75494Z" fill="#37474F"/>
<path d="M105.661 3.87396H111.651V22.687H105.661V3.87396Z" fill="#B0BEC5"/>
<path d="M106.657 5.75494H110.655V9.13594H106.657V5.75494Z" fill="#37474F"/>
<path d="M168.625 17.8979H102.031V14.6089H164.096C165.85 14.6089 167.513 15.8159 168.625 17.8979Z" fill="#01579B"/>
<path d="M102.03 26.001H100.171V3.87398H102.03V26.001Z" fill="#37474F"/>
<path d="M102.031 14.6089H200.206V17.8979H102.031V14.6089Z" fill="#01579B"/>
<path d="M85.8683 29.3559C85.8683 31.7709 87.1446 33.728 88.7196 33.728C90.2946 33.728 91.5709 31.7699 91.5709 29.3559C91.5709 26.9409 90.294 24.9839 88.7196 24.9839C87.1453 24.9839 85.8683 26.9419 85.8683 29.3559Z" fill="#37474F"/>
<path d="M78.2458 29.3559C78.2458 31.7709 79.5227 33.728 81.0971 33.728C82.6721 33.728 83.9484 31.7699 83.9484 29.3559C83.9484 26.9409 82.6714 24.9839 81.0971 24.9839C79.5227 24.9839 78.2458 26.9419 78.2458 29.3559Z" fill="#37474F"/>
<path d="M15.6359 29.3559C15.6359 31.7709 16.9122 33.728 18.4872 33.728C20.0622 33.728 21.3385 31.7699 21.3385 29.3559C21.3385 26.9409 20.0622 24.9839 18.4872 24.9839C16.9122 24.9839 15.6359 26.9419 15.6359 29.3559Z" fill="#37474F"/>
<path d="M8.0131 29.3559C8.0131 31.7709 9.28941 33.728 10.8644 33.728C12.4394 33.728 13.7157 31.7699 13.7157 29.3559C13.7157 26.9409 12.4394 24.9839 10.8644 24.9839C9.28941 24.9839 8.0131 26.9419 8.0131 29.3559Z" fill="#37474F"/>
<path d="M3.30512 0.518982H47.5695H54.6364H98.9008C99.613 0.518982 100.191 1.40498 100.191 2.49698V24.595H98.7775H54.6371H47.5701H3.42968H2.01642V2.49698C2.01512 1.40398 2.59295 0.518982 3.30512 0.518982Z" fill="#90A4AE"/>
<path d="M6.50784 29.356H91.2605C92.9757 29.356 94.3655 27.224 94.3655 24.595H5.21785V27.378C5.21785 28.471 5.79567 29.356 6.50784 29.356Z" fill="#546E7A"/>
<path d="M48.6696 5.75494H53.5361V12.5959H48.6696V5.75494Z" fill="#37474F"/>
<path d="M41.7826 5.75494H46.6492V12.5959H41.7826V5.75494Z" fill="#37474F"/>
<path d="M34.8957 5.75494H39.7622V12.5959H34.8957V5.75494Z" fill="#37474F"/>
<path d="M28.0088 5.75494H32.8754V12.5959H28.0088V5.75494Z" fill="#37474F"/>
<path d="M21.1219 5.75494H25.9884V12.5959H21.1219V5.75494Z" fill="#37474F"/>
<path d="M14.2348 5.75494H19.1013V12.5959H14.2348V5.75494Z" fill="#37474F"/>
<path d="M83.1038 5.75494H87.9703V12.5959H83.1038V5.75494Z" fill="#37474F"/>
<path d="M76.2167 5.75494H81.0833V12.5959H76.2167V5.75494Z" fill="#37474F"/>
<path d="M69.33 5.75494H74.1965V12.5959H69.33V5.75494Z" fill="#37474F"/>
<path d="M62.4437 5.75494H67.3102V12.5959H62.4437V5.75494Z" fill="#37474F"/>
<path d="M55.5566 5.75494H60.4231V12.5959H55.5566V5.75494Z" fill="#37474F"/>
<path d="M90.5693 3.87396H96.5602V22.687H90.5693V3.87396Z" fill="#B0BEC5"/>
<path d="M91.5658 5.75494H95.5636V9.13594H91.5658V5.75494Z" fill="#37474F"/>
<path d="M5.64572 3.87396H11.6366V22.687H5.64572V3.87396Z" fill="#B0BEC5"/>
<path d="M6.6422 5.75494H10.64V9.13594H6.6422V5.75494Z" fill="#37474F"/>
<path d="M68.6093 17.8979H2.0151V14.6089H64.0806C65.8349 14.6089 67.4973 15.8159 68.6093 17.8979Z" fill="#01579B"/>
<path d="M2.01512 26.001H0.155762L0.155762 3.87398H2.01512L2.01512 26.001Z" fill="#37474F"/>
<path d="M2.01517 14.6089H100.19V17.8979H2.01517V14.6089Z" fill="#01579B"/>
</svg>
