<svg width="301" height="38" viewBox="0 0 301 38" fill="none" xmlns="http://www.w3.org/2000/svg">
<path d="M269.555 0.481995H205.461C204.362 0.481995 203.473 1.847 203.473 3.53V8.336H278.131L277.146 6.336C275.325 2.643 272.524 0.481995 269.555 0.481995Z" fill="#B0BEC5"/>
<path d="M283.066 32.75C283.066 35.248 284.387 37.273 286.016 37.273C287.645 37.273 288.966 35.248 288.966 32.75C288.966 30.252 287.645 28.227 286.016 28.227C284.387 28.227 283.066 30.252 283.066 32.75Z" fill="#37474F"/>
<path d="M275.181 32.75C275.181 35.248 276.502 37.273 278.131 37.273C279.76 37.273 281.081 35.248 281.081 32.75C281.081 30.252 279.76 28.227 278.131 28.227C276.502 28.227 275.181 30.252 275.181 32.75Z" fill="#37474F"/>
<path d="M217.707 32.75C217.707 35.248 219.027 37.273 220.656 37.273C222.285 37.273 223.606 35.248 223.606 32.75C223.606 30.252 222.285 28.227 220.656 28.227C219.027 28.227 217.707 30.252 217.707 32.75Z" fill="#37474F"/>
<path d="M209.822 32.75C209.822 35.248 211.142 37.273 212.771 37.273C214.401 37.273 215.721 35.248 215.721 32.75C215.721 30.252 214.401 28.227 212.771 28.227C211.142 28.227 209.822 30.252 209.822 32.75Z" fill="#37474F"/>
<path d="M255.869 2.92001C278.52 3.28001 291.91 12.593 298.87 19.725C301.242 22.155 300.113 27.824 297.261 27.824H255.869H201.437V2.91901H255.869V2.92001Z" fill="#CFD8DC"/>
<path d="M298.595 19.449C298.686 19.541 298.781 19.634 298.87 19.726C301.242 22.156 300.113 27.825 297.261 27.825H255.869H201.437V19.449H298.595Z" fill="#26A69A"/>
<path d="M206.085 32.75H293.754C295.528 32.75 296.966 30.545 296.966 27.825H204.751V30.704C204.751 31.834 205.348 32.75 206.085 32.75Z" fill="#546E7A"/>
<path d="M280.723 15.413V8.33698H282.248C287.013 10.434 290.922 12.923 294.072 15.413H280.723Z" fill="#37474F"/>
<path d="M251.202 8.33698H256.236V13.353H251.202V8.33698Z" fill="#37474F"/>
<path d="M270.527 8.33698H275.561V13.353H270.527V8.33698Z" fill="#37474F"/>
<path d="M244.05 8.33698H249.085V13.353H244.05V8.33698Z" fill="#37474F"/>
<path d="M236.899 8.33698H241.933V13.353H236.899V8.33698Z" fill="#37474F"/>
<path d="M229.748 8.33698H234.782V13.353H229.748V8.33698Z" fill="#37474F"/>
<path d="M222.596 8.33698H227.63V13.353H222.596V8.33698Z" fill="#37474F"/>
<path d="M215.444 8.33698H220.478V13.353H215.444V8.33698Z" fill="#37474F"/>
<path d="M259.341 6.39105H265.538V25.851H259.341V6.39105Z" fill="#B0BEC5"/>
<path d="M260.372 8.33704H264.507V22.497H260.372V8.33704Z" fill="#37474F"/>
<path d="M206.142 6.39105H212.339V25.851H206.142V6.39105Z" fill="#B0BEC5"/>
<path d="M207.173 8.33704H211.309V22.497H207.173V8.33704Z" fill="#37474F"/>
<path d="M184.884 32.75C184.884 35.248 186.205 37.273 187.834 37.273C189.463 37.273 190.783 35.248 190.783 32.75C190.783 30.252 189.463 28.2271 187.834 28.2271C186.205 28.2271 184.884 30.252 184.884 32.75Z" fill="#37474F"/>
<path d="M176.999 32.75C176.999 35.248 178.32 37.273 179.949 37.273C181.578 37.273 182.899 35.248 182.899 32.75C182.899 30.252 181.578 28.2271 179.949 28.2271C178.32 28.2271 176.999 30.252 176.999 32.75Z" fill="#37474F"/>
<path d="M117.536 32.75C117.536 35.248 118.857 37.273 120.486 37.273C122.115 37.273 123.436 35.248 123.436 32.75C123.436 30.252 122.115 28.2271 120.486 28.2271C118.857 28.2271 117.536 30.252 117.536 32.75Z" fill="#37474F"/>
<path d="M109.652 32.75C109.652 35.248 110.972 37.273 112.601 37.273C114.231 37.273 115.551 35.248 115.551 32.75C115.551 30.252 114.231 28.2271 112.601 28.2271C110.972 28.2271 109.652 30.252 109.652 32.75Z" fill="#37474F"/>
<path d="M145.083 2.92004H155.228H199.515V27.825H196.62H155.228H145.083H103.691H100.796V2.92004H145.083Z" fill="#CFD8DC"/>
<path d="M105.444 32.7501H193.113C194.887 32.7501 196.325 30.5451 196.325 27.8251H104.11V30.7041C104.11 31.8341 104.707 32.7501 105.444 32.7501Z" fill="#546E7A"/>
<path d="M151.149 8.33704H156.183V13.353H151.149V8.33704Z" fill="#37474F"/>
<path d="M158.17 8.33704H163.204V13.353H158.17V8.33704Z" fill="#37474F"/>
<path d="M165.191 8.33704H170.226V13.353H165.191V8.33704Z" fill="#37474F"/>
<path d="M172.212 8.33704H177.246V13.353H172.212V8.33704Z" fill="#37474F"/>
<path d="M179.233 8.33704H184.268V13.353H179.233V8.33704Z" fill="#37474F"/>
<path d="M144.128 8.33704H149.162V13.353H144.128V8.33704Z" fill="#37474F"/>
<path d="M137.107 8.33704H142.141V13.353H137.107V8.33704Z" fill="#37474F"/>
<path d="M130.085 8.33704H135.12V13.353H130.085V8.33704Z" fill="#37474F"/>
<path d="M123.065 8.33704H128.099V13.353H123.065V8.33704Z" fill="#37474F"/>
<path d="M116.044 8.33704H121.078V13.353H116.044V8.33704Z" fill="#37474F"/>
<path d="M100.797 19.449H199.515V27.825H100.797V19.449Z" fill="#26A69A"/>
<path d="M188.796 6.39105H194.993V25.851H188.796V6.39105Z" fill="#B0BEC5"/>
<path d="M189.827 8.33704H193.962V22.497H189.827V8.33704Z" fill="#37474F"/>
<path d="M105.318 6.39105H111.515V25.851H105.318V6.39105Z" fill="#B0BEC5"/>
<path d="M106.349 8.33704H110.484V22.497H106.349V8.33704Z" fill="#37474F"/>
<path d="M104.377 0.481995H195.934C196.812 0.481995 197.524 1.57401 197.524 2.92001H102.786C102.787 1.57401 103.498 0.481995 104.377 0.481995Z" fill="#B0BEC5"/>
<path d="M201.438 23.6362H199.514V6.3902H201.438V23.6362Z" fill="#37474F"/>
<path d="M84.2427 32.75C84.2427 35.248 85.5634 37.273 87.1925 37.273C88.8217 37.273 90.1423 35.248 90.1423 32.75C90.1423 30.252 88.8217 28.2271 87.1925 28.2271C85.5634 28.2271 84.2427 30.252 84.2427 32.75Z" fill="#37474F"/>
<path d="M76.358 32.75C76.358 35.248 77.6786 37.273 79.3078 37.273C80.9369 37.273 82.2576 35.248 82.2576 32.75C82.2576 30.252 80.9369 28.2271 79.3078 28.2271C77.6786 28.2271 76.358 30.252 76.358 32.75Z" fill="#37474F"/>
<path d="M16.8954 32.75C16.8954 35.248 18.216 37.273 19.8451 37.273C21.4743 37.273 22.7949 35.248 22.7949 32.75C22.7949 30.252 21.4743 28.2271 19.8451 28.2271C18.2154 28.2271 16.8954 30.252 16.8954 32.75Z" fill="#37474F"/>
<path d="M9.01059 32.75C9.01059 35.248 10.3312 37.273 11.9604 37.273C13.5895 37.273 14.9102 35.248 14.9102 32.75C14.9102 30.252 13.5895 28.2271 11.9604 28.2271C10.3312 28.2271 9.01059 30.252 9.01059 32.75Z" fill="#37474F"/>
<path d="M44.4419 2.92004H54.5865H98.873V27.825H95.9787H54.5865H44.4419H3.04962H0.155278V2.92004H44.4419Z" fill="#CFD8DC"/>
<path d="M4.8033 32.7501H92.4713C94.2452 32.7501 95.6832 30.5451 95.6832 27.8251H3.46828V30.7041C3.46828 31.8341 4.06634 32.7501 4.8033 32.7501Z" fill="#546E7A"/>
<path d="M50.5077 8.33704H55.5419V13.353H50.5077V8.33704Z" fill="#37474F"/>
<path d="M57.5291 8.33704H62.5632V13.353H57.5291V8.33704Z" fill="#37474F"/>
<path d="M64.5497 8.33704H69.5839V13.353H64.5497V8.33704Z" fill="#37474F"/>
<path d="M71.5711 8.33704H76.6052V13.353H71.5711V8.33704Z" fill="#37474F"/>
<path d="M78.5923 8.33704H83.6265V13.353H78.5923V8.33704Z" fill="#37474F"/>
<path d="M43.4865 8.33704H48.5206V13.353H43.4865V8.33704Z" fill="#37474F"/>
<path d="M36.4657 8.33704H41.4999V13.353H36.4657V8.33704Z" fill="#37474F"/>
<path d="M29.4445 8.33704H34.4786V13.353H29.4445V8.33704Z" fill="#37474F"/>
<path d="M22.4231 8.33704H27.4573V13.353H22.4231V8.33704Z" fill="#37474F"/>
<path d="M15.4025 8.33704H20.4366V13.353H15.4025V8.33704Z" fill="#37474F"/>
<path d="M0.155281 19.449H98.873V27.825H0.155281V19.449Z" fill="#26A69A"/>
<path d="M88.1552 6.39105H94.3522V25.851H88.1552V6.39105Z" fill="#B0BEC5"/>
<path d="M89.1856 8.33704H93.321V22.497H89.1856V8.33704Z" fill="#37474F"/>
<path d="M4.67682 6.39105H10.8738V25.851H4.67682V6.39105Z" fill="#B0BEC5"/>
<path d="M5.70721 8.33704H9.84265V22.497H5.70721V8.33704Z" fill="#37474F"/>
<path d="M3.73499 0.481995H95.2932C96.171 0.481995 96.8832 1.57401 96.8832 2.92001H2.14498C2.14498 1.57401 2.85716 0.481995 3.73499 0.481995Z" fill="#B0BEC5"/>
<path d="M100.797 23.6362H98.8735V6.3902H100.797V23.6362Z" fill="#37474F"/>
</svg>
