<svg width="301" height="40" viewBox="0 0 301 40" fill="none" xmlns="http://www.w3.org/2000/svg">
<path d="M200.135 9.59705H202.195V30.302H200.135V9.59705Z" fill="#455A64"/>
<path d="M272.286 39.932C270.841 39.932 269.669 38.1353 269.669 35.919C269.669 33.7027 270.841 31.906 272.286 31.906C273.732 31.906 274.904 33.7027 274.904 35.919C274.904 38.1353 273.732 39.932 272.286 39.932Z" fill="#37474F"/>
<path d="M278.159 39.932C276.713 39.932 275.541 38.1353 275.541 35.919C275.541 33.7027 276.713 31.906 278.159 31.906C279.604 31.906 280.776 33.7027 280.776 35.919C280.776 38.1353 279.604 39.932 278.159 39.932Z" fill="#37474F"/>
<path d="M223.553 39.932C222.107 39.932 220.936 38.1353 220.936 35.919C220.936 33.7027 222.107 31.906 223.553 31.906C224.998 31.906 226.17 33.7027 226.17 35.919C226.17 38.1353 224.998 39.932 223.553 39.932Z" fill="#37474F"/>
<path d="M230.065 39.932C228.619 39.932 227.448 38.1353 227.448 35.919C227.448 33.7027 228.619 31.906 230.065 31.906C231.51 31.906 232.682 33.7027 232.682 35.919C232.682 38.1353 231.51 39.932 230.065 39.932Z" fill="#37474F"/>
<path d="M273.102 35.467C271.982 35.467 270.929 36.275 270.256 37.649C269.584 39.023 268.53 39.831 267.41 39.831H234.94C233.82 39.831 232.765 39.023 232.094 37.649C231.422 36.276 230.367 35.467 229.248 35.467H224.367C223.247 35.467 222.192 36.275 221.521 37.649C220.849 39.023 219.794 39.831 218.675 39.831H203.901C202.958 39.831 202.193 38.659 202.193 37.212V2.68802C202.193 1.24202 202.957 0.0690308 203.9 0.0690308H287.635C288.78 0.0690308 289.874 0.806021 290.648 2.10002L299.081 16.194C299.773 17.35 300.157 18.863 300.157 20.432V36.979C300.157 38.554 299.324 39.831 298.297 39.831H283.675C282.556 39.831 281.502 39.023 280.829 37.649C280.157 36.276 279.103 35.467 277.983 35.467" fill="#FFA726"/>
<path d="M202.195 3.38H291.413L299.08 16.194C299.772 17.35 300.156 18.863 300.156 20.432V22.359H202.195V3.38Z" fill="#D84315"/>
<path d="M255.049 5.117H261.469C262.172 5.117 262.741 5.99 262.741 7.067V34.079C262.741 35.156 262.172 36.029 261.469 36.029H255.049C254.347 36.029 253.778 35.156 253.778 34.079V7.067C253.778 5.99 254.347 5.117 255.049 5.117Z" fill="#FFA726" stroke="#D84315" stroke-miterlimit="10"/>
<path d="M202.195 26.166H300.114V28.656H202.195V26.166Z" fill="#F57C00"/>
<path d="M202.195 30.523H300.114V33.013H202.195V30.523Z" fill="#F57C00"/>
<path d="M298.82 15.758H279.792C279.243 15.758 278.799 15.076 278.799 14.236V9.96899C278.799 9.12799 279.244 8.44702 279.792 8.44702H294.445L298.82 15.758Z" fill="#37474F"/>
<path d="M256.046 15.758H260.474C261.022 15.758 261.466 15.076 261.466 14.236V9.96899C261.466 9.12799 261.021 8.44702 260.474 8.44702H256.046C255.498 8.44702 255.053 9.12899 255.053 9.96899V14.236C255.053 15.077 255.498 15.758 256.046 15.758Z" fill="#37474F"/>
<path d="M292.485 15.758H289.751L286.845 8.44604H289.58L292.485 15.758Z" fill="#546E7A"/>
<path d="M267.582 15.758H275.691C276.24 15.758 276.685 15.076 276.685 14.236V9.96899C276.685 9.12799 276.24 8.44702 275.691 8.44702H267.582C267.033 8.44702 266.588 9.12899 266.588 9.96899V14.236C266.588 15.077 267.033 15.758 267.582 15.758Z" fill="#37474F"/>
<path d="M276.137 15.5891C276.003 15.6941 275.852 15.758 275.691 15.758H274.127L271.222 8.44604H273.299L276.137 15.5891Z" fill="#546E7A"/>
<path d="M258.878 8.44604L261.397 14.786C261.253 15.354 260.895 15.758 260.474 15.758H259.706L256.801 8.44604H258.878Z" fill="#546E7A"/>
<path d="M288.503 15.758H284.164L281.258 8.44604H285.597L288.503 15.758Z" fill="#546E7A"/>
<path d="M241.871 15.758H249.981C250.53 15.758 250.974 15.076 250.974 14.236V9.96899C250.974 9.12799 250.529 8.44702 249.981 8.44702H241.872C241.323 8.44702 240.879 9.12899 240.879 9.96899V14.236C240.878 15.077 241.322 15.758 241.871 15.758Z" fill="#37474F"/>
<path d="M250.427 15.5891C250.293 15.6941 250.142 15.758 249.981 15.758H248.417L245.511 8.44604H247.589L250.427 15.5891Z" fill="#546E7A"/>
<path d="M230.016 15.758H238.126C238.675 15.758 239.119 15.076 239.119 14.236V9.96899C239.119 9.12799 238.674 8.44702 238.126 8.44702H230.016C229.468 8.44702 229.023 9.12899 229.023 9.96899V14.236C229.023 15.077 229.468 15.758 230.016 15.758Z" fill="#37474F"/>
<path d="M238.572 15.5891C238.437 15.6941 238.287 15.758 238.126 15.758H236.562L233.657 8.44604H235.734L238.572 15.5891Z" fill="#546E7A"/>
<path d="M218.161 15.758H226.271C226.82 15.758 227.264 15.076 227.264 14.236V9.96899C227.264 9.12799 226.82 8.44702 226.271 8.44702H218.161C217.613 8.44702 217.169 9.12899 217.169 9.96899V14.236C217.169 15.077 217.613 15.758 218.161 15.758Z" fill="#37474F"/>
<path d="M226.717 15.5891C226.583 15.6941 226.432 15.758 226.271 15.758H224.707L221.802 8.44604H223.879L226.717 15.5891Z" fill="#546E7A"/>
<path d="M206.81 5.117H213.231C213.933 5.117 214.503 5.99 214.503 7.067V34.079C214.503 35.156 213.933 36.029 213.231 36.029H206.81C206.108 36.029 205.538 35.156 205.538 34.079V7.067C205.538 5.99 206.108 5.117 206.81 5.117Z" fill="#FFA726" stroke="#D84315" stroke-miterlimit="10"/>
<path d="M207.807 15.758H212.234C212.783 15.758 213.227 15.076 213.227 14.236V9.96899C213.227 9.12799 212.782 8.44702 212.234 8.44702H207.807C207.258 8.44702 206.813 9.12899 206.813 9.96899V14.236C206.813 15.077 207.258 15.758 207.807 15.758Z" fill="#37474F"/>
<path d="M210.638 8.44598L213.158 14.786C213.014 15.354 212.656 15.758 212.234 15.758H211.467L208.561 8.44598H210.638Z" fill="#546E7A"/>
<path d="M172.266 39.932C170.82 39.932 169.649 38.1353 169.649 35.919C169.649 33.7027 170.82 31.906 172.266 31.906C173.711 31.906 174.883 33.7027 174.883 35.919C174.883 38.1353 173.711 39.932 172.266 39.932Z" fill="#37474F"/>
<path d="M178.137 39.932C176.692 39.932 175.52 38.1353 175.52 35.919C175.52 33.7027 176.692 31.906 178.137 31.906C179.583 31.906 180.755 33.7027 180.755 35.919C180.755 38.1353 179.583 39.932 178.137 39.932Z" fill="#37474F"/>
<path d="M123.532 39.932C122.086 39.932 120.915 38.1353 120.915 35.919C120.915 33.7027 122.086 31.906 123.532 31.906C124.977 31.906 126.149 33.7027 126.149 35.919C126.149 38.1353 124.977 39.932 123.532 39.932Z" fill="#37474F"/>
<path d="M130.044 39.932C128.598 39.932 127.427 38.1353 127.427 35.919C127.427 33.7027 128.598 31.906 130.044 31.906C131.489 31.906 132.661 33.7027 132.661 35.919C132.661 38.1353 131.489 39.932 130.044 39.932Z" fill="#37474F"/>
<path d="M173.082 35.467C171.962 35.467 170.908 36.275 170.236 37.649C169.564 39.023 168.51 39.831 167.39 39.831H134.919C133.8 39.831 132.746 39.023 132.073 37.649C131.402 36.276 130.347 35.467 129.227 35.467H124.346C123.227 35.467 122.173 36.275 121.5 37.649C120.829 39.023 119.774 39.831 118.654 39.831H103.881C102.938 39.831 102.173 38.659 102.173 37.212V2.68802C102.173 1.24202 102.938 0.0690308 103.881 0.0690308H187.613C188.758 0.0690308 200.092 0.0690308 200.092 0.0690308C200.092 0.0690308 200.134 18.863 200.134 20.432V36.979C200.134 38.554 199.301 39.831 198.274 39.831H183.652C182.533 39.831 181.479 39.023 180.806 37.649C180.135 36.276 179.08 35.467 177.96 35.467" fill="#FFA726"/>
<path d="M100.114 9.59705H102.174V30.302H100.114V9.59705Z" fill="#455A64"/>
<path d="M200.135 20.432V22.36H102.174V3.38H200.093" fill="#D84315"/>
<path d="M176.737 15.758H184.847C185.396 15.758 185.84 15.076 185.84 14.236V9.96899C185.84 9.12799 185.396 8.44702 184.847 8.44702H176.737C176.189 8.44702 175.744 9.12899 175.744 9.96899V14.236C175.744 15.077 176.189 15.758 176.737 15.758Z" fill="#37474F"/>
<path d="M185.293 15.5891C185.159 15.6941 185.009 15.758 184.847 15.758H183.283L180.378 8.44604H182.455L185.293 15.5891Z" fill="#546E7A"/>
<path d="M164.882 15.758H172.992C173.54 15.758 173.985 15.076 173.985 14.236V9.96899C173.985 9.12799 173.54 8.44702 172.992 8.44702H164.882C164.334 8.44702 163.889 9.12899 163.889 9.96899V14.236C163.89 15.077 164.334 15.758 164.882 15.758Z" fill="#37474F"/>
<path d="M173.438 15.5891C173.304 15.6941 173.153 15.758 172.992 15.758H171.428L168.523 8.44604H170.6L173.438 15.5891Z" fill="#546E7A"/>
<path d="M153.028 15.758H161.137C161.686 15.758 162.131 15.076 162.131 14.236V9.96899C162.131 9.12799 161.686 8.44702 161.137 8.44702H153.028C152.479 8.44702 152.034 9.12899 152.034 9.96899V14.236C152.034 15.077 152.479 15.758 153.028 15.758Z" fill="#37474F"/>
<path d="M161.583 15.5891C161.449 15.6941 161.299 15.758 161.137 15.758H159.573L156.668 8.44604H158.745L161.583 15.5891Z" fill="#546E7A"/>
<path d="M141.172 15.758H149.282C149.831 15.758 150.275 15.076 150.275 14.236V9.96899C150.275 9.12799 149.83 8.44702 149.282 8.44702H141.172C140.624 8.44702 140.18 9.12899 140.18 9.96899V14.236C140.179 15.077 140.624 15.758 141.172 15.758Z" fill="#37474F"/>
<path d="M149.728 15.5891C149.594 15.6941 149.444 15.758 149.282 15.758H147.718L144.813 8.44604H146.89L149.728 15.5891Z" fill="#546E7A"/>
<path d="M129.317 15.758H137.427C137.975 15.758 138.42 15.076 138.42 14.236V9.96899C138.42 9.12799 137.975 8.44702 137.427 8.44702H129.317C128.769 8.44702 128.324 9.12899 128.324 9.96899V14.236C128.325 15.077 128.769 15.758 129.317 15.758Z" fill="#37474F"/>
<path d="M137.873 15.5891C137.739 15.6941 137.589 15.758 137.427 15.758H135.863L132.958 8.44604H135.035L137.873 15.5891Z" fill="#546E7A"/>
<path d="M117.463 15.758H125.572C126.121 15.758 126.565 15.076 126.565 14.236V9.96899C126.565 9.12799 126.12 8.44702 125.572 8.44702H117.463C116.914 8.44702 116.47 9.12899 116.47 9.96899V14.236C116.469 15.077 116.914 15.758 117.463 15.758Z" fill="#37474F"/>
<path d="M126.018 15.5891C125.883 15.6941 125.734 15.758 125.572 15.758H124.008L121.103 8.44604H123.18L126.018 15.5891Z" fill="#546E7A"/>
<path d="M188.589 5.117H195.009C195.712 5.117 196.281 5.99 196.281 7.067V34.079C196.281 35.156 195.712 36.029 195.009 36.029H188.589C187.886 36.029 187.317 35.156 187.317 34.079V7.067C187.317 5.99 187.886 5.117 188.589 5.117Z" fill="#FFA726" stroke="#D84315" stroke-miterlimit="10"/>
<path d="M189.585 15.758H194.013C194.561 15.758 195.005 15.076 195.005 14.236V9.96899C195.005 9.12799 194.561 8.44702 194.013 8.44702H189.585C189.037 8.44702 188.592 9.12899 188.592 9.96899V14.236C188.592 15.077 189.037 15.758 189.585 15.758Z" fill="#37474F"/>
<path d="M192.417 8.44598L194.936 14.786C194.792 15.354 194.434 15.758 194.013 15.758H193.246L190.34 8.44598H192.417Z" fill="#546E7A"/>
<path d="M107.301 5.117H113.721C114.424 5.117 114.993 5.99 114.993 7.067V34.079C114.993 35.156 114.424 36.029 113.721 36.029H107.301C106.598 36.029 106.029 35.156 106.029 34.079V7.067C106.029 5.99 106.598 5.117 107.301 5.117Z" fill="#FFA726" stroke="#D84315" stroke-miterlimit="10"/>
<path d="M108.297 15.758H112.725C113.273 15.758 113.717 15.076 113.717 14.236V9.96899C113.717 9.12799 113.272 8.44702 112.725 8.44702H108.297C107.748 8.44702 107.304 9.12899 107.304 9.96899V14.236C107.304 15.077 107.748 15.758 108.297 15.758Z" fill="#37474F"/>
<path d="M111.129 8.44598L113.648 14.786C113.504 15.354 113.146 15.758 112.725 15.758H111.957L109.052 8.44598H111.129Z" fill="#546E7A"/>
<path d="M102.174 26.166H200.093V28.656H102.174V26.166Z" fill="#F57C00"/>
<path d="M102.174 30.523H200.093V33.013H102.174V30.523Z" fill="#F57C00"/>
<path d="M69.691 35.919C69.691 38.135 70.8629 39.932 72.3081 39.932C73.7533 39.932 74.9253 38.135 74.9253 35.919C74.9253 33.703 73.7533 31.906 72.3081 31.906C70.8629 31.906 69.691 33.703 69.691 35.919Z" fill="#37474F"/>
<path d="M78.1796 39.932C76.7342 39.932 75.5624 38.1353 75.5624 35.919C75.5624 33.7027 76.7342 31.906 78.1796 31.906C79.625 31.906 80.7968 33.7027 80.7968 35.919C80.7968 38.1353 79.625 39.932 78.1796 39.932Z" fill="#37474F"/>
<path d="M23.5739 39.932C22.1284 39.932 20.9567 38.1353 20.9567 35.919C20.9567 33.7027 22.1284 31.906 23.5739 31.906C25.0193 31.906 26.191 33.7027 26.191 35.919C26.191 38.1353 25.0193 39.932 23.5739 39.932Z" fill="#37474F"/>
<path d="M30.0858 39.932C28.6404 39.932 27.4687 38.1353 27.4687 35.919C27.4687 33.7027 28.6404 31.906 30.0858 31.906C31.5313 31.906 32.703 33.7027 32.703 35.919C32.703 38.1353 31.5313 39.932 30.0858 39.932Z" fill="#37474F"/>
<path d="M73.1239 35.467C72.0042 35.467 70.9503 36.275 70.2779 37.649C69.6061 39.023 68.5516 39.831 67.4318 39.831H34.9614C33.8416 39.831 32.7871 39.023 32.1153 37.649C31.4436 36.276 30.389 35.467 29.2693 35.467H24.3884C23.2686 35.467 22.2141 36.275 21.5423 37.649C20.8706 39.023 19.816 39.831 18.6962 39.831H3.92257C2.97953 39.831 2.21454 38.659 2.21454 37.212V2.68802C2.21454 1.24202 2.97889 0.0690308 3.92193 0.0690308H87.6544C88.8002 0.0690308 100.133 0.0690308 100.133 0.0690308C100.133 0.0690308 100.175 18.863 100.175 20.432V36.979C100.175 38.554 99.3426 39.831 98.3154 39.831H83.6937C82.5739 39.831 81.52 39.023 80.8476 37.649C80.1759 36.276 79.1213 35.467 78.0015 35.467" fill="#FFA726"/>
<path d="M0.156999 9.59705H2.21655V30.302H0.156999V9.59705Z" fill="#455A64"/>
<path d="M100.178 20.432V22.36H2.21657V3.38H100.136" fill="#D84315"/>
<path d="M76.7794 15.758H84.8892C85.4377 15.758 85.8824 15.076 85.8824 14.236V9.96899C85.8824 9.12799 85.4377 8.44702 84.8892 8.44702H76.7794C76.2309 8.44702 75.7868 9.12899 75.7868 9.96899V14.236C75.7862 15.077 76.2309 15.758 76.7794 15.758Z" fill="#37474F"/>
<path d="M85.3353 15.5891C85.2003 15.6941 85.051 15.758 84.8892 15.758H83.3253L80.4199 8.44604H82.4971L85.3353 15.5891Z" fill="#546E7A"/>
<path d="M64.9244 15.758H73.0341C73.5826 15.758 74.0267 15.076 74.0267 14.236V9.96899C74.0267 9.12799 73.5819 8.44702 73.0341 8.44702H64.9244C64.3759 8.44702 63.9318 9.12899 63.9318 9.96899V14.236C63.9318 15.077 64.3765 15.758 64.9244 15.758Z" fill="#37474F"/>
<path d="M73.4808 15.5891C73.3458 15.6941 73.1965 15.758 73.0348 15.758H71.4708L68.5654 8.44604H70.6426L73.4808 15.5891Z" fill="#546E7A"/>
<path d="M53.0697 15.758H61.1795C61.728 15.758 62.1721 15.076 62.1721 14.236V9.96899C62.1721 9.12799 61.7273 8.44702 61.1795 8.44702H53.0697C52.5213 8.44702 52.0765 9.12899 52.0765 9.96899V14.236C52.0765 15.077 52.5213 15.758 53.0697 15.758Z" fill="#37474F"/>
<path d="M61.6256 15.5891C61.4906 15.6941 61.3406 15.758 61.1795 15.758H59.6156L56.7102 8.44604H58.7873L61.6256 15.5891Z" fill="#546E7A"/>
<path d="M41.2145 15.758H49.3243C49.8728 15.758 50.3169 15.076 50.3169 14.236V9.96899C50.3169 9.12799 49.8721 8.44702 49.3243 8.44702H41.2145C40.666 8.44702 40.2219 9.12899 40.2219 9.96899V14.236C40.2219 15.077 40.666 15.758 41.2145 15.758Z" fill="#37474F"/>
<path d="M49.7704 15.5891C49.636 15.6941 49.486 15.758 49.3243 15.758H47.7604L44.8549 8.44604H46.9321L49.7704 15.5891Z" fill="#546E7A"/>
<path d="M29.3601 15.758H37.4698C38.0183 15.758 38.4624 15.076 38.4624 14.236V9.96899C38.4624 9.12799 38.0176 8.44702 37.4698 8.44702H29.3601C28.8116 8.44702 28.3674 9.12899 28.3674 9.96899V14.236C28.3668 15.077 28.8116 15.758 29.3601 15.758Z" fill="#37474F"/>
<path d="M37.9158 15.5891C37.7814 15.6941 37.6308 15.758 37.4697 15.758H35.9058L33.0003 8.44604H35.0775L37.9158 15.5891Z" fill="#546E7A"/>
<path d="M17.5048 15.758H25.6146C26.163 15.758 26.6072 15.076 26.6072 14.236V9.96899C26.6072 9.12799 26.1624 8.44702 25.6146 8.44702H17.5048C16.9563 8.44702 16.5122 9.12899 16.5122 9.96899V14.236C16.5122 15.077 16.9563 15.758 17.5048 15.758Z" fill="#37474F"/>
<path d="M26.0607 15.5891C25.9263 15.6941 25.7757 15.758 25.6146 15.758H24.0507L21.1453 8.44604H23.2224L26.0607 15.5891Z" fill="#546E7A"/>
<path d="M88.6308 5.117H95.0514C95.7538 5.117 96.3231 5.99 96.3231 7.067V34.079C96.3231 35.156 95.7538 36.029 95.0514 36.029H88.6308C87.9284 36.029 87.359 35.156 87.359 34.079V7.067C87.3597 5.99 87.929 5.117 88.6308 5.117Z" fill="#FFA726" stroke="#D84315" stroke-miterlimit="10"/>
<path d="M89.6272 15.758H94.0548C94.6033 15.758 95.0481 15.076 95.0481 14.236V9.96899C95.0481 9.12799 94.6033 8.44702 94.0548 8.44702H89.6272C89.0788 8.44702 88.634 9.12899 88.634 9.96899V14.236C88.6346 15.077 89.0788 15.758 89.6272 15.758Z" fill="#37474F"/>
<path d="M92.4589 8.44598L94.9783 14.786C94.8341 15.354 94.4761 15.758 94.0548 15.758H93.2872L90.3818 8.44598H92.4589Z" fill="#546E7A"/>
<path d="M7.34267 5.117H13.7633C14.4657 5.117 15.035 5.99 15.035 7.067V34.079C15.035 35.156 14.4657 36.029 13.7633 36.029H7.34267C6.64028 36.029 6.07093 35.156 6.07093 34.079V7.067C6.07158 5.99 6.64093 5.117 7.34267 5.117Z" fill="#FFA726" stroke="#D84315" stroke-miterlimit="10"/>
<path d="M8.33907 15.758H12.7667C13.3151 15.758 13.7593 15.076 13.7593 14.236V9.96899C13.7593 9.12799 13.3145 8.44702 12.7667 8.44702H8.33907C7.79059 8.44702 7.34646 9.12899 7.34646 9.96899V14.236C7.34646 15.077 7.79059 15.758 8.33907 15.758Z" fill="#37474F"/>
<path d="M11.1708 8.44598L13.6902 14.786C13.5461 15.354 13.188 15.758 12.7667 15.758H11.9991L9.09367 8.44598H11.1708Z" fill="#546E7A"/>
<path d="M2.21589 26.166H100.135V28.656H2.21589V26.166Z" fill="#F57C00"/>
<path d="M2.21589 30.523H100.135V33.013H2.21589V30.523Z" fill="#F57C00"/>
</svg>
